<svg xmlns="http://www.w3.org/2000/svg" viewBox="0 0 190 100">
  <!-- Stripes -->
  <rect fill="#B22234" width="190" height="100"/>
  <rect fill="#fff" y="7.69" width="190" height="7.69"/>
  <rect fill="#fff" y="23.08" width="190" height="7.69"/>
  <rect fill="#fff" y="38.46" width="190" height="7.69"/>
  <rect fill="#fff" y="53.85" width="190" height="7.69"/>
  <rect fill="#fff" y="69.23" width="190" height="7.69"/>
  <rect fill="#fff" y="84.62" width="190" height="7.69"/>
  <!-- Blue canton -->
  <rect fill="#3C3B6E" width="76" height="53.85"/>
  <!-- Stars (simplified 5x4 + 4x5 pattern representation) -->
  <g fill="#fff">
    <circle cx="8" cy="5.4" r="2.5"/><circle cx="24" cy="5.4" r="2.5"/><circle cx="40" cy="5.4" r="2.5"/><circle cx="56" cy="5.4" r="2.5"/><circle cx="72" cy="5.4" r="2.5"/>
    <circle cx="16" cy="11" r="2.5"/><circle cx="32" cy="11" r="2.5"/><circle cx="48" cy="11" r="2.5"/><circle cx="64" cy="11" r="2.5"/>
    <circle cx="8" cy="16.6" r="2.5"/><circle cx="24" cy="16.6" r="2.5"/><circle cx="40" cy="16.6" r="2.5"/><circle cx="56" cy="16.6" r="2.5"/><circle cx="72" cy="16.6" r="2.5"/>
    <circle cx="16" cy="22.2" r="2.5"/><circle cx="32" cy="22.2" r="2.5"/><circle cx="48" cy="22.2" r="2.5"/><circle cx="64" cy="22.2" r="2.5"/>
    <circle cx="8" cy="27.8" r="2.5"/><circle cx="24" cy="27.8" r="2.5"/><circle cx="40" cy="27.8" r="2.5"/><circle cx="56" cy="27.8" r="2.5"/><circle cx="72" cy="27.8" r="2.5"/>
    <circle cx="16" cy="33.4" r="2.5"/><circle cx="32" cy="33.4" r="2.5"/><circle cx="48" cy="33.4" r="2.5"/><circle cx="64" cy="33.4" r="2.5"/>
    <circle cx="8" cy="39" r="2.5"/><circle cx="24" cy="39" r="2.5"/><circle cx="40" cy="39" r="2.5"/><circle cx="56" cy="39" r="2.5"/><circle cx="72" cy="39" r="2.5"/>
    <circle cx="16" cy="44.6" r="2.5"/><circle cx="32" cy="44.6" r="2.5"/><circle cx="48" cy="44.6" r="2.5"/><circle cx="64" cy="44.6" r="2.5"/>
    <circle cx="8" cy="50.2" r="2.5"/><circle cx="24" cy="50.2" r="2.5"/><circle cx="40" cy="50.2" r="2.5"/><circle cx="56" cy="50.2" r="2.5"/><circle cx="72" cy="50.2" r="2.5"/>
  </g>
</svg>
